<svg id="Layer_1" data-name="Layer 1" xmlns="http://www.w3.org/2000/svg" viewBox="0 0 512 512"><title>podcast-microphone-glyph</title><path d="M277.33,425.41v43.92H320A21.33,21.33,0,0,1,320,512H192a21.33,21.33,0,0,1,0-42.67h42.67V425.41C138.81,414.75,64,333.31,64,234.67a21.33,21.33,0,1,1,42.67,0c0,75.08,55.75,137.22,128,147.63V339.18a106.84,106.84,0,0,1-85.33-104.52v-128a106.67,106.67,0,0,1,213.33,0v128a106.84,106.84,0,0,1-85.33,104.52V382.3c72.25-10.41,128-72.55,128-147.63a21.33,21.33,0,1,1,42.67,0C448,333.31,373.19,414.75,277.33,425.41Z"/></svg>